<?xml version="1.0" encoding="UTF-8" standalone="no"?>
<!DOCTYPE svg PUBLIC "-//W3C//DTD SVG 1.1//EN" "http://www.w3.org/Graphics/SVG/1.1/DTD/svg11.dtd">
<svg width="13" height="13" viewBox="0 0 35 35" version="1.1" xmlns="http://www.w3.org/2000/svg" xmlns:xlink="http://www.w3.org/1999/xlink" xml:space="preserve" xmlns:serif="http://www.serif.com/" style="fill-rule:evenodd;clip-rule:evenodd;stroke-linejoin:round;stroke-miterlimit:2;">
    <circle cx="17.5" cy="17.5" r="18" fill="#fff"/>
    <path d="M17.5,-0C27.159,-0 35,7.841 35,17.5C35,27.159 27.159,35 17.5,35C7.841,35 0,27.159 0,17.5C0,7.841 7.841,-0 17.5,-0ZM11.371,21.346L14.976,21.346C15.104,22.548 15.97,23.149 17.572,23.149C18.373,23.149 18.982,22.976 19.399,22.632C19.816,22.287 20.024,21.827 20.024,21.25C20.024,20.737 19.86,20.296 19.531,19.928C19.203,19.559 18.75,19.311 18.173,19.183L16.346,18.774C14.776,18.421 13.586,17.792 12.777,16.887C11.968,15.982 11.563,14.824 11.563,13.414C11.563,12.244 11.904,11.247 12.585,10.421C13.266,9.596 14.207,9.023 15.409,8.703L15.385,8.246L15.385,6.323L18.99,6.323L18.99,8.246L18.966,8.582C20.264,8.807 21.294,9.328 22.055,10.145C22.816,10.962 23.245,12.004 23.341,13.27L19.735,13.27C19.671,12.741 19.435,12.328 19.026,12.032C18.618,11.735 18.077,11.587 17.404,11.587C16.699,11.587 16.15,11.755 15.757,12.092C15.365,12.428 15.168,12.853 15.168,13.366C15.168,13.814 15.321,14.203 15.625,14.531C15.93,14.86 16.37,15.088 16.947,15.217L18.87,15.649C20.424,16.002 21.606,16.639 22.415,17.56C23.225,18.481 23.629,19.655 23.629,21.081C23.629,22.379 23.233,23.473 22.439,24.362C21.646,25.252 20.561,25.833 19.183,26.105L19.231,26.754L19.231,28.677L15.625,28.677L15.625,26.754L15.673,26.081C14.391,25.809 13.374,25.26 12.621,24.435C11.867,23.609 11.451,22.58 11.371,21.346Z" style="fill:rgb(0,130,7);"/>
</svg>
